<svg xmlns="http://www.w3.org/2000/svg" data-name="Layer 1" width="693" height="616" viewBox="0 0 693 616" xmlns:xlink="http://www.w3.org/1999/xlink"><circle cx="360.3728" cy="94.09532" r="40" fill="#f2f2f2"/><circle cx="354.3728" cy="97.09532" r="40" fill="#f2f2f2"/><path d="M651.8722,677.04048,614.38,677.03905V676.565a14.59383,14.59383,0,0,1,14.593-14.5928h.00091l6.84841-5.19554L648.6,661.973l3.27284.00007Z" transform="translate(-253.5 -142)" fill="#f2f2f2"/><path d="M634.41905,656.791l-32.03268,19.48267-.24638-.40506a14.59381,14.59381,0,0,1,4.88417-20.0512l.00077-.00047,3.151-7.99784,13.61718-2.20069,2.79623-1.70076Z" transform="translate(-253.5 -142)" fill="#f2f2f2"/><path d="M656.44281,550.56529c-.17,1.19995-.42,5.28-.71,11.22-1.41,28.80005-3.86,101.31006-3.86,101.31006l-15.27-4.75s-18.16-54.78-15.16-84.78l-2.16-10.43994-3.7-17.84009v-.01l-11.27-54.33s-2.47,14.7201-2.67,18.17005-2.2,4.45-3.2,4.45c-5.01,0-3.47-.89-2.74,4.06006.53,3.55993-3.81,23.97-6.29,35.12988-.96,4.34009-1.64,7.28-1.64,7.28l4.24,9.14,35.15,75.80005-13.29,7.12-53.02-78.58008-5.23-7.75-1.12-8.68994-8.82-68.37s-2.75-7.73,0-7.93c2.76-.21,4.32.66,3.54-2.27-.78-2.93994,15.22-51.93994,15.22-51.93994l83,18s8.18,16.26,5,24c-3.19,7.74,2.61,67.67993-.7,70.34009-3.3,2.65991-5.43.5299-.87,5.09985a8.38635,8.38635,0,0,0,2.43,1.76C656.1228,547.04527,657.2428,544.96531,656.44281,550.56529Z" transform="translate(-253.5 -142)" fill="#f2f2f2"/><circle cx="354.11277" cy="98.95991" r="23.0557" fill="#a0616a"/><path d="M625.57956,260.81621l-9.14,1.75s8.5-13.72,8-20c-.5-6.28-7.34-8.53-7.34-8.53s-3.79.82-7.78,1.28a20.0611,20.0611,0,0,0-1.85-3.85,6.71583,6.71583,0,0,1-1.96,4.14,10.93526,10.93526,0,0,1-4.33-.5c-1.58-.72-1.55-1.97-1.03-3.14a41.62375,41.62375,0,0,0-14.82,4.07,40.8988,40.8988,0,0,1,.35-9.2c.22-.06.44-.12994.66-.2a20.41435,20.41435,0,0,0,3.92-1.71,6.75155,6.75155,0,0,1-3.7-1.74c.84-2.46,2.18-4.59,4.29-5.63a15.81547,15.81547,0,0,1,13.13-.35s-4.88995-3.57-3.09-5.03c.12.12.24.23.37.34.17.13995.36.29.54.43,1.11.9,2.77-.37,2.99-1.73a4.5857,4.5857,0,0,1,.1-.51c.03-.14.07-.28.11-.41a3.39441,3.39441,0,0,1,.12-.34c3.33-.8,13.4,2.45,17.27,9.61C622.38956,219.56621,649.43954,232.56621,625.57956,260.81621Z" transform="translate(-253.5 -142)" fill="#3f3d56"/><path d="M617.22778,466.37631a8.93378,8.93378,0,0,1,7.32068-10.08344,8.57117,8.57117,0,0,1,1.41312-.10276l24.107-55.98179L666.606,412.62424l-32.19849,53.034a8.909,8.909,0,0,1-7.366,8.00259,8.52587,8.52587,0,0,1-9.77952-7.05282Q617.24333,466.49238,617.22778,466.37631Z" transform="translate(-253.5 -142)" fill="#6c63ff"/><path d="M549.69686,470.93952a8.93377,8.93377,0,0,0-.00564-12.46067,8.57057,8.57057,0,0,0-1.08356-.91287l13.3547-59.47066-20.67673.34075-5.07394,61.83525a8.909,8.909,0,0,0,1.264,10.80284,8.52588,8.52588,0,0,0,12.05738.03276Q549.61612,471.02435,549.69686,470.93952Z" transform="translate(-253.5 -142)" fill="#6c63ff"/><path d="M682.94281,371.3853c-3,4-7-.51-3,5.25,2.75,3.96-13.01,41.08-23.1,63.82-4.56,10.28992-7.97,17.64-7.97,17.64l-17.01-9.8501-1.99-1.1499s15.6-39.26,20.62-53.37c.83-2.34,1.38-3.99,1.51-4.65.94-4.69,1.06-8.71,0-10.2a13.90473,13.90473,0,0,1-.64-1.71c-2.01-5.89-8.13-25.78-13.86-44.59-1.67-5.52-3.32-10.94-4.82-15.89-3.85-12.71-6.74-22.3-6.74-22.3l23,1s.38.64,1.05,1.8c1.6,2.76,4.88,8.45,8.68,15.29,2.74,4.92,5.76,10.45,8.61005,15.89,7.26,13.84,13.51,27.17,11.66,29.02-4,4-8.09,1.73-3.05,6.86C680.94281,369.3853,685.94281,367.3853,682.94281,371.3853Z" transform="translate(-253.5 -142)" fill="#f2f2f2"/><path d="M655.43958,424.56626c-6-5.94006-4.89-33.01007-4.89-33.01007s5.97-90.9-2.11-96.99a112.67431,112.67431,0,0,0-17.76-10.49c-.36-.16-.55-.25-.55-.25l-5.16-14.55-31.79-1.65-5.55,10.78s-.87.06-2.23.25c-5.08.7-17.02,3.18-15.96,10.91,1.34,9.8-8.12,69.99-11,73s-2.12,14.01,5,21,2,26-3,34a27.3848,27.3848,0,0,0-3.96,16.33991s3.96,21.66015,13.96,14.66015c3.81-2.67016,9.22-3.01,15.73-2.52.06347.00463.13226.01293.196.01782l-.196.98218c9.04.66992,20.21,2.93994,32.16,2.80993l-.35388-1.00452c.11883-.00073.23486.00586.35388.00452,2.02-.02,4.05-.11,6.11-.28992,17.82-1.55,25.69,3.34986,28-2C654.74957,441.21617,661.43958,430.50621,655.43958,424.56626Z" transform="translate(-253.5 -142)" fill="#f2f2f2"/><circle cx="354.3728" cy="97.09532" r="30" fill="#6c63ff" opacity="0.3"/><path d="M593.44281,284.3853s-4.56,15.14-9.87,32.61c-1.67,5.5-3.42,11.23-5.12,16.80005-5.55,18.11-10.61,34.43-11.08,35.08-1.06,1.49-.93,5.51,0,10.2.19.94-.24,4.6-1.05,9.85-1.06,6.89-2.77,16.51-4.59,26.33-1.45,7.85-2.97,15.82-4.28,22.61005-2.05,10.54-3.58,18.23-3.58,18.23h-19s3.57-79.71,7.57-85.46c4-5.76,0-1.25-3-5.25s2-2,7.04-7.14c5.04-5.13.96-2.86-3.04-6.86-1.48-1.48,1.83-10.91,6.59-22.2,2.22-5.24,4.75-10.88995,7.25-16.32995,5.17-11.23,10.24-21.56,12.25-25.64,0-.01.01-.02.01-.03l.9-1.8Z" transform="translate(-253.5 -142)" fill="#f2f2f2"/><path d="M634.8728,288.09532c-20.879,8.1098-39.65112,9.50775-55,0v-18c18.07686,10.84643,36.41721,10.54986,55,0Z" transform="translate(-253.5 -142)" fill="#3f3d56"/><path d="M650.8728,403.09532c-32.26747,8.1098-61.279,9.50775-85,0v-18c27.937,10.84643,56.28114,10.54986,85,0Z" transform="translate(-253.5 -142)" fill="#3f3d56"/><path d="M656.44281,550.56529c-.17,1.19995-.42,5.28-.71,11.22a147.5843,147.5843,0,0,1-36.45,1.34009l-3.7-17.84009a112.88652,112.88652,0,0,0,37.72.48C656.1228,547.04527,657.2428,544.96531,656.44281,550.56529Z" transform="translate(-253.5 -142)" fill="#3f3d56"/><path d="M592.01282,569.17527a195.43337,195.43337,0,0,1-31.16,4.34l-5.23-7.75-1.12-8.68994a118.57174,118.57174,0,0,0,34.91-4.32007c-.96,4.34009-1.64,7.28-1.64,7.28Z" transform="translate(-253.5 -142)" fill="#3f3d56"/><path d="M594.8728,326.09532a10,10,0,0,1-20,0c0-5.52285,9-17,10-10S594.8728,320.57247,594.8728,326.09532Z" transform="translate(-253.5 -142)" fill="#6c63ff"/><path d="M585.96,309.14c-.36-.03-.72-.04-1.09-.04a17.02576,17.02576,0,0,0-16.98,16.11c-.01.29-.02.59-.02.89,0,.41.01.81.05,1.21a16.98729,16.98729,0,0,0,31.24,7.98,15.94718,15.94718,0,0,0,1.04-1.85,16.989,16.989,0,0,0-14.24-24.3ZM597.7,335a16.91771,16.91771,0,0,1-12.83,6.1,15.02174,15.02174,0,0,1-14.88-13.13,14.4398,14.4398,0,0,1-.12-1.87,2.26081,2.26081,0,0,1,.01-.26,15.00184,15.00184,0,0,1,14.99-14.74c.09.24.18.47.28.69,4.27,10.1,13.53,9.34,14.72,14.31a9.8314,9.8314,0,0,1-.98,7.09A11.52084,11.52084,0,0,1,597.7,335Z" transform="translate(-253.5 -142)" fill="#6c63ff"/></svg>