<svg version="1.2" xmlns="http://www.w3.org/2000/svg" viewBox="0 0 2000 2000" width="2000" height="2000">
	<title>AdobeStock_166677038-ai</title>
	<style>
		.s0 { fill: #ffffff } 
		.s1 { fill: #ffc7a3 } 
		.s2 { fill: #e8b594 } 
		.s3 { fill: #29201a } 
		.s4 { fill: #522e23 } 
		.s5 { fill: #000000 } 
		.s6 { fill: #6e5647 } 
		.s7 { fill: #614c3f } 
		.s8 { fill: #3d3027 } 
		.s9 { fill: #ffaf99 } 
		.s10 { fill: #63382b } 
		.s11 { fill: #6e3e30 } 
		.s12 { fill: #3d1800 } 
		.s13 { fill: #291000 } 
		.s14 { fill: #ff3a12 } 
		.s15 { fill: #ffecc3 } 
		.s16 { opacity: .8;fill: #baf8e9 } 
	</style>
	<g id="_Artboards_">
	</g>
	<g id="321353356351 1">
		<g id="&lt;Group&gt;">
			<g id="&lt;Group&gt;">
				<g id="&lt;Group&gt;">
					<path id="&lt;Path&gt;" class="s12" d="m946.3 997.3c0 0 29.9-18.2 75.8-43.3 11.5-6.2 23.9-13.1 37.3-19.9 13.3-7 27.3-14.3 41.9-21.5 14.6-7.5 29.9-14.8 45.4-22.1 15.4-7.5 31.4-14.4 47.3-21.7 15.9-7.1 32.1-13.7 47.9-20.4 16-6.3 31.7-12.4 47-18.3 15.4-5.4 30.3-10.8 44.5-15.5 14.3-4.4 27.9-8.6 40.4-12.4 12.6-3.3 24.3-6.2 34.6-8.9 10.2-2.9 19.4-4.1 26.9-5.7 14.9-2.8 23.5-4.5 23.5-4.5 0 0-8.6 1.8-23.5 4.8-7.4 1.7-16.6 3.1-26.8 6.1-10.2 2.8-21.8 5.9-34.4 9.3-12.4 4-25.9 8.3-40.1 12.9-14.2 4.9-28.9 10.6-44.3 16.1-15.1 6.2-30.7 12.5-46.6 18.9-15.7 7-31.7 13.7-47.5 21.1-15.8 7.4-31.7 14.5-47 22.3-15.4 7.5-30.5 15-44.9 22.6-14.6 7.4-28.4 14.9-41.6 22-13.2 7-25.5 14.1-36.9 20.3-45.5 25.7-74.9 44.2-74.9 44.2-1.8 1.1-4.1 0.6-5.3-1.2-1.1-1.7-0.5-4.1 1.2-5.2q0.1 0 0.1 0z"/>
				</g>
				<g id="&lt;Group&gt;">
					<path id="&lt;Path&gt;" class="s12" d="m1057.2 980.9c-4.3 10.8-16.5 16-27.3 11.8-10.7-4.3-16-16.5-11.7-27.3 4.3-10.8 16.5-16 27.3-11.7 10.7 4.2 16 16.4 11.7 27.2z"/>
				</g>
				<g id="&lt;Group&gt;">
					<path id="&lt;Path&gt;" class="s12" d="m1038.5 951.3c11 1.8 22.3 1.8 33.4 0.5 2.8-0.3 5.5-0.9 8.2-1.4 2.8-0.3 5.5-1.3 8.2-1.9 2.7-0.6 5.3-1.7 7.9-2.6 2.7-0.9 5.3-2 7.7-3.3 2.5-1.3 5.1-2.3 7.4-3.9l7-4.6c2.2-1.8 4.2-3.6 6.4-5.4 2.2-1.8 4-3.9 5.8-6 1.7-2.2 3.9-4.1 5.3-6.4l4.6-7c1.7-2.3 2.7-4.9 4-7.4l3.6-7.6 0.3-0.5 0.5 0.1c5.5 1.3 11.3 2 17 2.3 5.7 0.3 11.4 0.1 17.1-0.4l8.6-1.1 8.4-1.8 8.2-2.5c2.7-0.8 5.3-2.2 7.9-3.2 2.7-1 5.2-2.4 7.7-3.8 2.5-1.5 5.1-2.6 7.4-4.5l7-5c2.2-1.7 4.2-3.8 6.4-5.7 2.1-1.9 4.3-3.8 6.1-6l5.6-6.6c2-2 3.3-4.6 5-6.9l4.9-7.1 0.2-0.4 0.3 0.2c4.6 1.7 9.5 3 14.4 4.1 4.8 1.1 9.8 1.8 14.8 2.1 2.5 0.3 5 0.3 7.5 0.3 2.5 0 5-0.1 7.5-0.4 2.5-0.2 4.9-0.5 7.4-1.1 2.4-0.6 4.9-0.8 7.2-1.7 2.4-0.9 4.8-1.6 7.1-2.6l6.6-3.5c2.2-1.2 4.1-2.9 6.1-4.3 2.1-1.4 3.8-3.2 5.5-5 1.7-1.9 3.7-3.5 5-5.6l4.3-6.2c1.6-1.9 2.4-4.3 3.5-6.6l3.3-6.7 0.1-0.2 0.1 0.1c4 1.1 8.1 2 12.2 2.7q6.1 1 12.3 1.4c4.1 0.2 8.3 0.3 12.4 0.1 2.1-0.1 4.2-0.2 6.2-0.5 2.1-0.3 4.2-0.4 6.2-0.9 4.1-0.7 8.1-1.7 12-3.1 2-0.5 3.9-1.4 5.8-2.2 1.9-0.9 3.8-1.6 5.6-2.8l5.3-3.2c1.7-1.2 3.3-2.5 4.9-3.8q2.5-1.8 4.6-4.2l4.3-4.5-4.3 4.5q-2 2.4-4.5 4.3c-1.7 1.2-3.2 2.6-4.9 3.8l-5.4 3.2c-1.7 1.2-3.7 1.9-5.6 2.8-1.8 0.8-3.7 1.7-5.7 2.3-4 1.4-8 2.3-12.1 3.1-2 0.5-4.1 0.6-6.2 0.9-2 0.3-4.1 0.4-6.2 0.5-4.1 0.3-8.3 0.2-12.4 0-4.2-0.3-8.3-0.7-12.4-1.4-4.1-0.7-8.2-1.5-12.2-2.7l0.3-0.1-3.3 6.8c-1.1 2.3-2 4.7-3.5 6.7l-4.3 6.2c-1.3 2.1-3.4 3.7-5 5.6-1.7 1.9-3.4 3.7-5.6 5.1-2 1.5-3.9 3.2-6.1 4.4l-6.7 3.5c-2.3 1.1-4.7 1.8-7.1 2.6-2.3 1-4.9 1.3-7.3 1.9-2.5 0.6-5 0.9-7.5 1.1-2.5 0.2-5 0.4-7.5 0.4-2.5 0-5.1 0-7.6-0.3q-7.5-0.5-14.9-2.1c-4.9-1-9.8-2.3-14.5-4l0.5-0.2-4.8 7.2c-1.8 2.3-3.1 4.9-5.1 7l-5.7 6.6c-1.7 2.3-3.9 4.2-6 6.1-2.2 1.9-4.2 4.1-6.5 5.8l-7 5.1c-2.3 1.9-5 3-7.5 4.5-2.5 1.5-5 2.9-7.7 3.9-2.7 1.1-5.3 2.4-8.1 3.3l-8.2 2.6-8.5 1.8-8.6 1.2c-5.8 0.5-11.6 0.7-17.4 0.4-5.8-0.3-11.5-1-17.2-2.3l0.8-0.4-3.7 7.7c-1.2 2.5-2.2 5.2-3.9 7.5l-4.7 7.1c-1.5 2.4-3.6 4.4-5.4 6.6-1.9 2.1-3.7 4.3-5.9 6.1-2.2 1.8-4.3 3.8-6.5 5.6l-7.1 4.7c-2.3 1.6-5 2.6-7.5 4-2.5 1.4-5.1 2.4-7.8 3.3-2.6 1-5.3 2.1-8.1 2.7-2.7 0.7-5.4 1.6-8.2 2-2.8 0.5-5.6 1.2-8.4 1.4-11.3 1.4-22.7 1.4-34-0.3z"/>
				</g>
			</g>
			<g id="&lt;Group&gt;">
				<path id="&lt;Path&gt;" class="s13" d="m1458.9 783.1c0 0 0.2 95.3 0.4 190.7 0.1 47.6 0.3 95.3 0 131-0.3 35.8-0.4 59.6-0.4 59.6h-0.2c0 0-0.2-23.8-0.4-59.6-0.3-35.7-0.1-83.4-0.1-131 0.3-95.4 0.5-190.7 0.5-190.7z"/>
			</g>
			<g id="&lt;Group&gt;">
				<g id="&lt;Group&gt;">
					<path id="&lt;Path&gt;" class="s14" d="m1482.4 1158.8c0-18.4-10.6-33.4-23.6-33.4-13 0-23.6 15-23.6 33.4q0 1.3 0.1 2.7h47q0.1-1.4 0.1-2.7z"/>
				</g>
				<g id="&lt;Group&gt;">
					<path id="&lt;Path&gt;" class="s15" d="m1458.8 1203.4c12.4 0 22.6-23.7 23.5-41.9h-47c0.9 18.2 11.1 41.9 23.5 41.9z"/>
				</g>
			</g>
		</g>
	</g>
</svg>