<svg xmlns="http://www.w3.org/2000/svg" data-name="Layer 1" width="902.41854" height="826.20679" viewBox="0 0 902.41854 826.20679" xmlns:xlink="http://www.w3.org/1999/xlink"><path d="M440.1517,377.92488c-3.862,2.57319-7.8147-3.55124-3.87848-6.01018C440.135,369.34165,444.08773,375.46609,440.1517,377.92488Z" transform="translate(-148.79073 -36.89661)" fill="#e6e6e6"/><path d="M842.1517,289.92488c-3.862,2.57319-7.8147-3.55124-3.87848-6.01018C842.135,281.34165,846.08773,287.46609,842.1517,289.92488Z" transform="translate(-148.79073 -36.89661)" fill="#e6e6e6"/><path d="M568.1517,359.92488c-3.862,2.57319-7.8147-3.55124-3.87848-6.01018C568.135,351.34165,572.08773,357.46609,568.1517,359.92488Z" transform="translate(-148.79073 -36.89661)" fill="#e6e6e6"/><path d="M440.1517,599.92488c-3.862,2.57319-7.8147-3.55124-3.87848-6.01018C440.135,591.34165,444.08773,597.46609,440.1517,599.92488Z" transform="translate(-148.79073 -36.89661)" fill="#e6e6e6"/><path d="M637.1517,98.92488c-3.862,2.57319-7.8147-3.55124-3.87848-6.01018C637.135,90.34165,641.08773,96.46609,637.1517,98.92488Z" transform="translate(-148.79073 -36.89661)" fill="#e6e6e6"/><path d="M447.1517,216.92488c-3.862,2.57319-7.8147-3.55124-3.87848-6.01018C447.135,208.34165,451.08773,214.46609,447.1517,216.92488Z" transform="translate(-148.79073 -36.89661)" fill="#e6e6e6"/><polygon points="571.639 146.2 569.182 145.661 569.72 143.203 568.082 142.844 567.543 145.302 565.086 144.764 564.727 146.402 567.184 146.941 566.646 149.398 568.284 149.757 568.823 147.299 571.28 147.838 571.639 146.2" fill="#e6e6e6"/><polygon points="171.542 350.978 169.085 350.439 169.623 347.982 167.985 347.623 167.446 350.08 164.988 349.542 164.629 351.18 167.087 351.719 166.549 354.177 168.187 354.535 168.726 352.078 171.183 352.616 171.542 350.978" fill="#e6e6e6"/><circle cx="171.29146" cy="204.8449" r="103" fill="#ff6584"/><path d="M742.39622,349.02053l62.59321-182.809L736.2582,346.83222a3.44161,3.44161,0,1,0,6.138,2.18831Z" transform="translate(-148.79073 -36.89661)" fill="#f0f0f0" opacity="0.3"/><circle cx="783.42532" cy="375.13624" r="10.70234" fill="#ff6584"/><circle cx="851.42532" cy="665.13624" r="10.70234" fill="#f2f2f2"/><circle cx="486.42532" cy="720.13624" r="20.86614" fill="#f2f2f2"/><circle cx="327.42532" cy="454.13624" r="10.70234" fill="#3f3d56"/></svg>