<svg width="1356" height="1343" xmlns="http://www.w3.org/2000/svg" xmlns:xlink="http://www.w3.org/1999/xlink" xml:space="preserve" overflow="hidden"><defs><clipPath id="clip0"><rect x="1352" y="545" width="1356" height="1343"/></clipPath><radialGradient cx="1.11529e+06" cy="2.24166e+06" r="1.58114e+06" fy="2.24166e+06" gradientUnits="userSpaceOnUse" spreadMethod="pad" id="fill1" gradientTransform="matrix(0.000360892 0 0 0.000360892 1356 612)"><stop offset="0" stop-color="#1978A5" stop-opacity="1"/><stop offset="0.21" stop-color="#1978A5" stop-opacity="1"/><stop offset="0.69" stop-color="#5F53C1" stop-opacity="1"/><stop offset="1" stop-color="#9326C7" stop-opacity="1"/></radialGradient><linearGradient x1="1759.99" y1="551.015" x2="1355.49" y2="953.488" gradientUnits="userSpaceOnUse" spreadMethod="reflect" id="fill2"><stop offset="0" stop-color="#DFF6F5" stop-opacity="1"/><stop offset="0.31" stop-color="#DFF6F5" stop-opacity="1"/><stop offset="0.61" stop-color="#9326C7" stop-opacity="1"/><stop offset="0.86" stop-color="#9326C7" stop-opacity="1"/><stop offset="1" stop-color="#9326C7" stop-opacity="1"/></linearGradient><radialGradient cx="1.11529e+06" cy="1.12083e+06" r="1.58114e+06" gradientUnits="userSpaceOnUse" spreadMethod="pad" id="fill3" gradientTransform="matrix(-0.000360892 4.41966e-20 -4.41966e-20 -0.000360892 2703 1825)"><stop offset="0" stop-color="#1978A5" stop-opacity="1"/><stop offset="0.09" stop-color="#2F5597" stop-opacity="1"/><stop offset="0.43" stop-color="#30579B" stop-opacity="1"/><stop offset="0.62" stop-color="#3864B3" stop-opacity="1"/><stop offset="0.79" stop-color="#1FBFB8" stop-opacity="1"/><stop offset="1" stop-color="#1FBFB8" stop-opacity="1"/></radialGradient><radialGradient cx="58.6875" cy="2.24166e+06" r="1.58114e+06" fx="58.6787" fy="2.24166e+06" gradientUnits="userSpaceOnUse" spreadMethod="pad" id="fill4" gradientTransform="matrix(0.000360892 0 0 0.000360892 1356 1076)"><stop offset="0" stop-color="#011AA3" stop-opacity="1"/><stop offset="0.53" stop-color="#011AA3" stop-opacity="1"/><stop offset="0.91" stop-color="#1978A5" stop-opacity="1"/><stop offset="0.92" stop-color="#1978A5" stop-opacity="1"/><stop offset="1" stop-color="#1978A5" stop-opacity="1"/></radialGradient><radialGradient cx="58.625" cy="1.12083e+06" r="1.58114e+06" fx="58.6786" gradientUnits="userSpaceOnUse" spreadMethod="pad" id="fill5" gradientTransform="matrix(-6.62949e-20 -0.000360892 0.000360892 -6.62949e-20 1896 1885)"><stop offset="0" stop-color="#011AA3" stop-opacity="1"/><stop offset="0.59" stop-color="#2C4F8C" stop-opacity="1"/><stop offset="1" stop-color="#1978A5" stop-opacity="1"/></radialGradient><linearGradient x1="1835" y1="752" x2="2238" y2="752" gradientUnits="userSpaceOnUse" spreadMethod="reflect" id="fill6"><stop offset="0" stop-color="#DFF6F5" stop-opacity="1"/><stop offset="0.41" stop-color="#1FD6D0" stop-opacity="1"/><stop offset="1" stop-color="#1FD6D0" stop-opacity="1"/></linearGradient><radialGradient cx="1.11668e+06" cy="1.12222e+06" r="1.58314e+06" fx="1.11668e+06" fy="1.12222e+06" gradientUnits="userSpaceOnUse" spreadMethod="pad" id="fill7" gradientTransform="matrix(0.000360892 0 0 0.000360892 1835 1482)"><stop offset="0" stop-color="#011AA3" stop-opacity="1"/><stop offset="0.53" stop-color="#011AA3" stop-opacity="1"/><stop offset="0.83" stop-color="#1978A5" stop-opacity="1"/><stop offset="0.92" stop-color="#1978A5" stop-opacity="1"/><stop offset="1" stop-color="#1978A5" stop-opacity="1"/></radialGradient></defs><g clip-path="url(#clip0)" transform="translate(-1352 -545)"><path d="M1757.01 1421C1536.9 1420.18 1358.27 1241.82 1356.02 1020.62L1758.5 1016.5Z" fill="url(#fill1)" fill-rule="evenodd"/><path d="M1357.99 550.003C1578.1 550.822 1756.73 729.181 1758.98 950.376L1356.5 954.5Z" fill="url(#fill2)" fill-rule="evenodd"/><path d="M2301.99 1016C2522.1 1016.82 2700.74 1195.18 2702.98 1416.38L2300.5 1420.5Z" fill="url(#fill3)" fill-rule="evenodd"/><path d="M1757.01 1885C1536.9 1884.18 1358.27 1705.82 1356.02 1484.62L1758.5 1480.5Z" fill="url(#fill4)" fill-rule="evenodd"/><path d="M2705 1483.99C2704.18 1704.1 2525.82 1882.74 2304.62 1884.98L2300.5 1482.5Z" fill="url(#fill5)" fill-rule="evenodd"/><path d="M2701 552.991C2700.18 773.103 2521.82 951.735 2300.62 953.979L2296.5 551.5Z" fill="#1FD6D0" fill-rule="evenodd" fill-opacity="1"/><rect x="1835" y="550" width="403" height="404" fill="url(#fill6)"/><rect x="1835" y="1013" width="403" height="404" fill="#1978A5" fill-opacity="1"/><rect x="1835" y="1482" width="403" height="405" fill="url(#fill7)"/></g></svg>