<svg xmlns="http://www.w3.org/2000/svg" data-name="Layer 1" width="693" height="616" viewBox="0 0 693 616" xmlns:xlink="http://www.w3.org/1999/xlink"><path d="M820.89,271.14c-40.29,37.5-93.66,61.56-148.48,67.33q-8.06991.855-16.18,1.17c-1.19995.05-2.4.08-3.61.11-1.96.05-3.93.07-5.89.07q-3.525,0-7.05-.1a255.88354,255.88354,0,0,1-40.52-4.43c-.49-.1-.97-.19-1.46-.29q-3.165-.615-6.31-1.32-6.03-1.335-12-2.96c-1.29-.35-2.58-.71-3.87-1.09-1.85-.53-3.69-1.09-5.53-1.66-.69-.22-1.38-.43-2.07-.66q-1.05-.33-2.1-.69-6.405-2.1-12.7-4.56a255.24182,255.24182,0,0,1-66.37-37.91c-2.78-2.21-5.6-4.53-8.32-6.78-14.62-12.06-29.74-24.53-48.17-27.25-19.9-2.93-39.02,6.13-57.5,14.89-6.27,2.97-12.75,6.04-19.16,8.61a152.67089,152.67089,0,0,1-98.1,4.69c-.67-.18-1.34-.38-2-.58v-2.09c.66.2,1.33.4,2,.59a150.75325,150.75325,0,0,0,97.36-4.47c6.35-2.54,12.81-5.6,19.05-8.56,18.75-8.89,38.14-18.08,58.64-15.06,18.98,2.8,34.32,15.45,49.15,27.69,2.72,2.24,5.53,4.56,8.29,6.76a253.09188,253.09188,0,0,0,65.94,37.65h.01c4.02,1.56,8.09,3.03,12.18,4.39.59.19,1.18.38,1.77.58.66.21,1.33.42,1.99.63q2.535.81,5.08,1.54,2.49.75,5.01,1.42h.01q6.45008,1.755,12.98,3.17c1.97.44,3.94.84,5.93,1.22.43.09.87.17,1.31.25a252.999,252.999,0,0,0,38.86,4.26h.01q6.795.20994,13.57.05c1.18-.03,2.35-.07,3.52-.11q7.66508-.3,15.31-1.08h.01c54.65-5.59,107.89-29.51,148.05005-66.89a1.00132,1.00132,0,0,1,1.36,1.47Z" transform="translate(-253.5 -142)" fill="#6c63ff"/><path d="M253.81,232.94a2.30973,2.30973,0,0,1-.31.72v-2.79A2.819,2.819,0,0,1,253.81,232.94Z" transform="translate(-253.5 -142)" fill="#ff6584"/><ellipse cx="259.43895" cy="243.27926" rx="3.27161" ry="2.27591" transform="translate(-264.64557 332.0982) rotate(-83.62433)" fill="#e6e6e6"/><ellipse cx="262.22187" cy="264.4871" rx="3.27161" ry="2.27591" transform="translate(-283.24836 353.71669) rotate(-83.62433)" fill="#3f3d56"/><ellipse cx="753.4425" cy="432.59418" rx="3.60114" ry="5.17661" transform="translate(-104.48422 914.67884) rotate(-75.77932)" fill="#fff"/><ellipse cx="719.59887" cy="432.37602" rx="3.60114" ry="5.17661" transform="translate(-129.80244 881.70773) rotate(-75.77932)" fill="#3f3d56"/><ellipse cx="759.79349" cy="460.67263" rx="3.60114" ry="5.17661" transform="translate(-126.91144 942.01599) rotate(-75.77932)" fill="#ff6584"/><ellipse cx="770.43895" cy="472.27926" rx="3.27161" ry="2.27591" transform="translate(-37.97424 1043.50799) rotate(-83.62433)" fill="#e6e6e6"/><ellipse cx="773.22187" cy="493.4871" rx="3.27161" ry="2.27591" transform="translate(-56.57703 1065.12648) rotate(-83.62433)" fill="#3f3d56"/><ellipse cx="738.62158" cy="453.07117" rx="3.27161" ry="2.27591" transform="translate(-47.16909 994.81233) rotate(-83.62433)" fill="#e6e6e6"/><ellipse cx="755.65329" cy="446.67272" rx="3.27161" ry="2.27591" transform="translate(-25.66983 1006.05077) rotate(-83.62433)" fill="#ff6584"/><ellipse cx="734.67098" cy="429.38621" rx="3.27161" ry="2.27591" transform="translate(-27.14252 969.83133) rotate(-83.62433)" fill="#3f3d56"/><ellipse cx="298.4425" cy="195.59418" rx="3.60114" ry="5.17661" transform="translate(-217.97261 294.8423) rotate(-75.77932)" fill="#fff"/><ellipse cx="264.59887" cy="195.37602" rx="3.60114" ry="5.17661" transform="translate(-243.29083 261.87118) rotate(-75.77932)" fill="#3f3d56"/><ellipse cx="304.79349" cy="223.67263" rx="3.60114" ry="5.17661" transform="translate(-240.39983 322.17945) rotate(-75.77932)" fill="#ff6584"/><ellipse cx="315.43895" cy="235.27926" rx="3.27161" ry="2.27591" transform="translate(-206.91368 380.64022) rotate(-83.62433)" fill="#e6e6e6"/><ellipse cx="318.22187" cy="256.4871" rx="3.27161" ry="2.27591" transform="translate(-225.51647 402.25871) rotate(-83.62433)" fill="#3f3d56"/><ellipse cx="283.62158" cy="216.07117" rx="3.27161" ry="2.27591" transform="translate(-216.10854 331.94456) rotate(-83.62433)" fill="#e6e6e6"/><ellipse cx="300.65329" cy="209.67272" rx="3.27161" ry="2.27591" transform="translate(-194.60927 343.183) rotate(-83.62433)" fill="#ff6584"/><ellipse cx="279.67098" cy="192.38621" rx="3.27161" ry="2.27591" transform="translate(-196.08196 306.96356) rotate(-83.62433)" fill="#3f3d56"/><circle cx="158.3728" cy="194.09532" r="4" fill="#fff"/><circle cx="60.3728" cy="234.09532" r="2" fill="#fff"/><circle cx="457.3728" cy="383.09532" r="2" fill="#fff"/><circle cx="199.3728" cy="291.09532" r="2" fill="#fff"/><circle cx="235.3728" cy="82.09532" r="2" fill="#fff"/><circle cx="562.3728" cy="159.09532" r="2" fill="#fff"/><circle cx="97.3728" cy="55.09532" r="2" fill="#fff"/><circle cx="461.3728" cy="43.09532" r="4" fill="#fff"/><path d="M893.87,716.6h-2c0-11.54-10.81-22.83-32.14-33.56-20.87-10.5-50.79-19.94-88.91-28.05q-8.46-1.8-17.31-3.48c-30.52-5.8-64.43-10.55-100.75-14.16q-11.265-1.125-22.85-2.09c-2.5-.22-5.02-.42-7.55-.63q-10.545-.82506-21.31-1.54c-37.46-2.48-76.79-3.83-117.05-3.97-2.37-.02-4.75-.02-7.13-.02-52.43,0-64.27,4.95-64.97,9.11-1.79,10.52,58.85,31.65,117.49,52.1C594.3,712.93,661.01,736.19,683.73,756c.77.67,1.49,1.34,2.16,2h-2.75c-.73-.66-1.52-1.33-2.36-2C656.79,736.84,589.5,713.38,528.73,692.19c-74.94-26.12-120.77-42.72-118.81-54.32.85-5.02,9.23-10.77,66.95-10.77,1.89,0,3.79,0,5.68.01,40.25.11,79.58,1.43,117.08,3.89q10.995.705,21.77,1.56c2.67.21,5.33.42,7.98.65q11.88.99006,23.45,2.14c37.28,3.7,72.05,8.6,103.23,14.61q7.74,1.5,15.18,3.08C850.32,669.86,893.87,692.43,893.87,716.6Z" transform="translate(-253.5 -142)" fill="#e6e6e6"/><path d="M862.8728,711.77891h-2c0-8.54-34.88818-17.68359-86.8247-17.68359-51.936,0-86.82422,9.14355-86.82422,17.68359h-2c0-12.32129,45.16211-19.68359,88.82422-19.68359S862.8728,699.45762,862.8728,711.77891Z" transform="translate(-253.5 -142)" fill="#e6e6e6"/><path d="M827.97583,717.59532h-2c0-4.82324-21.20654-10.19824-51.63672-10.19824s-51.63672,5.375-51.63672,10.19824h-2c0-7.92285,27.63477-12.19824,53.63672-12.19824S827.97583,709.67247,827.97583,717.59532Z" transform="translate(-253.5 -142)" fill="#e6e6e6"/></svg>