<svg xmlns="http://www.w3.org/2000/svg" data-name="Layer 1" width="693" height="616" viewBox="0 0 693 616" xmlns:xlink="http://www.w3.org/1999/xlink"><path d="M253.81,232.94a2.30973,2.30973,0,0,1-.31.72v-2.79A2.819,2.819,0,0,1,253.81,232.94Z" transform="translate(-253.5 -142)" fill="#D14836"/><ellipse cx="259.43895" cy="243.27926" rx="3.27161" ry="2.27591" transform="translate(-264.64557 332.0982) rotate(-83.62433)" fill="#e6e6e6"/><ellipse cx="262.22187" cy="264.4871" rx="3.27161" ry="2.27591" transform="translate(-283.24836 353.71669) rotate(-83.62433)" fill="#3f3d56"/><ellipse cx="753.4425" cy="432.59418" rx="3.60114" ry="5.17661" transform="translate(-104.48422 914.67884) rotate(-75.77932)" fill="#fff"/><ellipse cx="719.59887" cy="432.37602" rx="3.60114" ry="5.17661" transform="translate(-129.80244 881.70773) rotate(-75.77932)" fill="#3f3d56"/><ellipse cx="759.79349" cy="460.67263" rx="3.60114" ry="5.17661" transform="translate(-126.91144 942.01599) rotate(-75.77932)" fill="#D14836"/><ellipse cx="770.43895" cy="472.27926" rx="3.27161" ry="2.27591" transform="translate(-37.97424 1043.50799) rotate(-83.62433)" fill="#e6e6e6"/><ellipse cx="773.22187" cy="493.4871" rx="3.27161" ry="2.27591" transform="translate(-56.57703 1065.12648) rotate(-83.62433)" fill="#3f3d56"/><ellipse cx="738.62158" cy="453.07117" rx="3.27161" ry="2.27591" transform="translate(-47.16909 994.81233) rotate(-83.62433)" fill="#e6e6e6"/><ellipse cx="755.65329" cy="446.67272" rx="3.27161" ry="2.27591" transform="translate(-25.66983 1006.05077) rotate(-83.62433)" fill="#D14836"/><ellipse cx="734.67098" cy="429.38621" rx="3.27161" ry="2.27591" transform="translate(-27.14252 969.83133) rotate(-83.62433)" fill="#3f3d56"/><ellipse cx="298.4425" cy="195.59418" rx="3.60114" ry="5.17661" transform="translate(-217.97261 294.8423) rotate(-75.77932)" fill="#fff"/><ellipse cx="264.59887" cy="195.37602" rx="3.60114" ry="5.17661" transform="translate(-243.29083 261.87118) rotate(-75.77932)" fill="#3f3d56"/><ellipse cx="304.79349" cy="223.67263" rx="3.60114" ry="5.17661" transform="translate(-240.39983 322.17945) rotate(-75.77932)" fill="#D14836"/><ellipse cx="315.43895" cy="235.27926" rx="3.27161" ry="2.27591" transform="translate(-206.91368 380.64022) rotate(-83.62433)" fill="#e6e6e6"/><ellipse cx="318.22187" cy="256.4871" rx="3.27161" ry="2.27591" transform="translate(-225.51647 402.25871) rotate(-83.62433)" fill="#3f3d56"/><ellipse cx="283.62158" cy="216.07117" rx="3.27161" ry="2.27591" transform="translate(-216.10854 331.94456) rotate(-83.62433)" fill="#e6e6e6"/><ellipse cx="300.65329" cy="209.67272" rx="3.27161" ry="2.27591" transform="translate(-194.60927 343.183) rotate(-83.62433)" fill="#D14836"/><ellipse cx="279.67098" cy="192.38621" rx="3.27161" ry="2.27591" transform="translate(-196.08196 306.96356) rotate(-83.62433)" fill="#3f3d56"/><circle cx="158.3728" cy="194.09532" r="4" fill="#fff"/><circle cx="60.3728" cy="234.09532" r="2" fill="#fff"/><circle cx="457.3728" cy="383.09532" r="2" fill="#fff"/><circle cx="199.3728" cy="291.09532" r="2" fill="#fff"/><circle cx="235.3728" cy="82.09532" r="2" fill="#fff"/><circle cx="562.3728" cy="159.09532" r="2" fill="#fff"/><circle cx="97.3728" cy="55.09532" r="2" fill="#fff"/><circle cx="461.3728" cy="43.09532" r="4" fill="#fff"/></svg>