<?xml version="1.0" standalone="no"?>
<!DOCTYPE svg PUBLIC "-//W3C//DTD SVG 20010904//EN"
 "http://www.w3.org/TR/2001/REC-SVG-20010904/DTD/svg10.dtd">
<svg version="1.0" xmlns="http://www.w3.org/2000/svg"
 width="1107.000000pt" height="1107.000000pt" viewBox="0 0 1107.000000 1107.000000"
 preserveAspectRatio="xMidYMid meet">
<metadata>
Created by potrace 1.14, written by Peter Selinger 2001-2017
</metadata>
<g transform="translate(0.000000,1107.000000) scale(0.100000,-0.100000)"
fill="#000000" stroke="none">
<path d="M5184 11041 c-3 -3 -31 -7 -62 -7 -68 -2 -160 -11 -262 -24 -42 -6
-93 -13 -115 -15 -50 -7 -74 -11 -240 -41 -16 -3 -46 -9 -65 -14 -19 -5 -51
-11 -70 -14 -19 -3 -45 -8 -57 -11 -13 -3 -31 -7 -40 -9 -10 -2 -54 -14 -98
-25 -44 -12 -87 -23 -96 -26 -9 -2 -34 -8 -54 -14 -21 -6 -42 -8 -46 -6 -4 3
-9 2 -11 -3 -1 -4 -70 -29 -153 -56 -82 -27 -163 -54 -180 -62 -16 -7 -82 -33
-145 -58 -63 -24 -142 -57 -175 -72 -33 -16 -62 -29 -65 -29 -3 -1 -45 -21
-95 -44 -49 -24 -92 -42 -94 -41 -2 1 -7 -2 -10 -7 -3 -5 -58 -35 -121 -67
-63 -33 -121 -65 -128 -73 -7 -7 -20 -13 -28 -13 -8 0 -14 -4 -14 -8 0 -5 -16
-14 -35 -22 -19 -8 -35 -17 -35 -22 0 -4 -7 -8 -15 -8 -8 0 -15 -4 -15 -10 0
-5 -5 -10 -11 -10 -7 0 -77 -44 -156 -97 -79 -54 -152 -102 -161 -108 -9 -5
-21 -15 -27 -21 -10 -12 -155 -121 -184 -139 -8 -5 -20 -15 -26 -21 -5 -6 -64
-56 -130 -111 -66 -55 -173 -152 -238 -215 -64 -63 -120 -112 -122 -109 -3 2
-5 -1 -5 -7 0 -6 -41 -52 -90 -103 -50 -50 -90 -93 -90 -95 0 -2 -9 -14 -19
-26 -26 -31 -47 -55 -101 -119 -25 -29 -53 -61 -62 -71 -10 -10 -18 -20 -18
-23 0 -6 -98 -135 -114 -150 -6 -6 -15 -18 -21 -26 -35 -56 -156 -229 -170
-242 -8 -9 -15 -18 -14 -19 1 -2 -9 -21 -23 -43 -21 -34 -66 -109 -142 -238
-10 -18 -51 -96 -92 -174 -40 -77 -74 -139 -76 -137 -2 2 -4 -5 -5 -14 -1 -10
-21 -58 -44 -107 -23 -50 -43 -92 -44 -95 -1 -3 -9 -23 -19 -45 -10 -22 -19
-44 -20 -50 -2 -5 -9 -23 -15 -40 -56 -134 -190 -532 -193 -572 -2 -13 -6 -23
-11 -23 -4 0 -5 -4 -2 -10 3 -5 3 -16 -1 -22 -5 -7 -9 -19 -10 -28 -2 -8 -5
-22 -7 -30 -2 -8 -8 -34 -12 -57 -4 -24 -11 -43 -14 -43 -4 0 -7 -8 -7 -17 -1
-24 -11 -81 -25 -140 -11 -48 -13 -61 -25 -143 -3 -25 -9 -47 -13 -50 -3 -3
-6 -18 -7 -35 0 -16 -4 -52 -8 -80 -4 -27 -9 -61 -10 -75 -2 -14 -6 -43 -10
-65 -3 -22 -9 -76 -12 -120 -3 -44 -8 -100 -10 -125 -8 -64 -12 -763 -5 -775
3 -5 6 -23 7 -40 10 -182 16 -244 40 -385 3 -14 6 -43 8 -65 3 -22 5 -40 6
-40 1 0 3 -11 5 -25 3 -25 5 -31 25 -130 6 -30 14 -68 17 -84 5 -32 31 -151
38 -178 3 -10 7 -26 9 -35 3 -10 9 -33 15 -50 5 -18 8 -33 5 -33 -2 0 2 -13
10 -29 9 -16 13 -31 9 -34 -3 -4 -2 -14 3 -24 4 -10 9 -22 9 -28 1 -5 5 -17 8
-25 5 -14 29 -88 32 -100 1 -3 4 -12 8 -20 8 -21 30 -93 33 -105 2 -11 99
-266 114 -300 4 -11 27 -63 50 -115 23 -52 48 -107 56 -123 8 -15 12 -27 7
-27 -4 0 -3 -4 2 -8 13 -9 101 -184 97 -194 -1 -4 2 -8 7 -8 5 0 16 -17 25
-37 9 -21 24 -52 34 -68 113 -194 151 -257 172 -283 6 -6 8 -12 5 -12 -3 0 3
-10 15 -22 11 -12 20 -27 20 -34 0 -7 3 -14 8 -16 4 -1 32 -39 62 -83 44 -65
116 -164 167 -230 7 -9 102 -128 143 -179 8 -10 34 -40 57 -65 24 -25 43 -49
43 -53 0 -8 352 -363 435 -438 60 -55 146 -128 238 -202 15 -13 33 -27 40 -33
7 -5 39 -30 72 -55 70 -53 69 -52 117 -88 20 -16 90 -64 155 -108 65 -43 119
-82 121 -86 2 -5 8 -8 13 -8 5 0 56 -29 114 -64 58 -36 105 -62 105 -58 0 4 4
2 8 -4 6 -10 370 -202 382 -202 3 0 41 -16 85 -37 44 -20 121 -53 170 -72 50
-19 104 -41 120 -48 32 -14 290 -104 315 -110 8 -2 17 -4 20 -6 3 -1 10 -3 15
-4 6 -1 22 -7 38 -13 15 -7 38 -14 50 -16 12 -2 85 -20 162 -40 77 -19 156
-38 175 -41 19 -3 43 -8 53 -11 11 -3 29 -7 40 -9 12 -2 47 -9 77 -15 30 -6
69 -12 85 -14 33 -5 95 -14 135 -21 73 -13 119 -18 152 -19 21 -1 38 -3 38 -6
0 -3 17 -5 37 -6 21 0 76 -4 123 -8 47 -4 148 -9 225 -11 77 -3 150 -7 162 -9
13 -3 25 0 28 5 4 5 12 6 18 2 13 -8 107 -11 107 -3 0 3 48 5 108 6 59 0 145
3 192 7 47 4 117 10 155 13 39 3 84 8 100 10 17 2 48 6 70 9 22 3 56 8 75 11
19 3 49 7 65 10 42 5 86 12 115 18 14 3 48 10 75 16 28 5 61 12 75 15 14 4 39
8 55 11 17 3 75 17 130 31 55 14 107 26 115 28 61 14 171 47 201 59 20 8 39
12 43 9 3 -4 6 0 6 7 0 7 3 11 6 7 3 -3 25 1 47 10 23 8 49 16 57 18 53 12
434 165 438 176 2 5 11 9 20 9 10 0 112 48 227 106 272 138 265 134 265 145 0
6 4 8 9 4 5 -3 16 2 24 10 9 8 19 15 22 15 10 0 181 106 251 156 34 24 67 44
73 44 6 0 11 4 11 8 0 4 28 26 63 49 34 23 75 53 91 67 16 15 32 26 35 26 3 0
20 13 38 28 17 15 44 36 59 47 16 11 35 27 44 35 9 8 54 46 100 84 47 37 89
75 93 82 4 8 12 14 17 14 16 0 490 479 490 494 0 4 10 17 23 29 12 13 38 42
57 66 19 24 40 48 45 55 6 6 26 31 45 56 19 25 38 50 43 55 4 6 35 46 67 90
33 44 63 85 68 90 25 32 203 306 209 321 4 11 13 25 20 32 7 7 13 20 13 28 0
8 4 14 9 14 5 0 13 10 17 22 4 13 9 25 13 28 6 5 31 50 73 130 13 25 27 48 31
51 5 3 8 9 7 13 -2 4 10 31 26 59 16 29 29 54 29 57 1 3 16 37 34 75 19 39 34
76 34 83 0 6 4 12 8 12 3 0 10 10 14 23 4 12 8 24 9 27 1 3 9 19 18 35 8 17
21 48 28 70 7 22 16 45 21 50 4 6 10 23 13 39 3 15 9 33 14 39 5 7 21 48 37
92 15 44 31 89 35 100 9 20 57 167 65 195 32 121 79 305 86 340 5 25 11 54 14
65 2 11 11 51 19 89 9 38 14 72 11 74 -2 3 0 13 6 23 5 11 12 38 14 62 3 23 7
53 9 67 3 14 8 43 11 65 3 23 7 50 9 60 2 11 7 47 10 80 26 239 35 397 36 630
0 119 -6 370 -10 370 -1 0 -3 27 -5 60 -7 130 -17 234 -31 325 -3 19 -7 51 -9
70 -6 49 -37 219 -51 280 -3 13 -7 40 -10 58 -2 19 -6 38 -9 42 -3 4 -7 25
-11 46 -3 22 -12 64 -21 94 -8 30 -16 62 -18 70 -2 8 -4 15 -5 15 -2 0 -6 18
-14 64 -4 19 -11 42 -17 52 -5 11 -7 19 -3 19 3 0 1 7 -6 15 -7 8 -10 15 -7
15 4 0 -1 19 -9 43 -9 23 -17 49 -19 57 -2 8 -13 42 -25 75 -12 33 -23 67 -25
75 -1 9 -15 44 -29 79 -14 36 -26 70 -26 78 0 7 -5 13 -12 13 -6 0 -8 3 -5 7
4 3 2 12 -4 20 -6 7 -9 13 -6 13 7 0 -20 64 -89 215 -15 33 -28 63 -28 66 -2
15 -161 324 -168 327 -4 2 -8 9 -8 14 0 13 -135 244 -158 271 -8 9 -12 17 -8
17 4 0 -2 10 -14 22 -11 12 -20 27 -20 34 0 7 -3 14 -7 16 -5 2 -39 49 -77
106 -39 56 -76 108 -83 114 -7 6 -13 17 -13 24 0 8 -4 14 -8 14 -7 0 -53 58
-87 108 -11 17 -32 44 -63 80 -11 13 -35 41 -54 64 -18 23 -44 54 -58 69 -14
15 -36 42 -50 60 -34 45 -400 411 -479 479 -35 30 -69 60 -75 65 -6 6 -31 26
-56 45 -24 19 -52 42 -61 50 -23 21 -49 42 -89 70 -19 13 -37 27 -40 30 -3 3
-26 21 -53 40 -26 19 -59 45 -73 58 -14 12 -29 22 -34 22 -5 0 -15 6 -22 13
-7 7 -48 35 -91 63 -42 28 -75 54 -72 57 3 4 2 5 -1 2 -4 -2 -19 3 -33 13 -55
36 -67 43 -83 48 -10 4 -18 11 -18 16 0 5 -4 7 -9 4 -5 -4 -11 -3 -13 1 -4 10
-57 42 -80 50 -10 3 -18 9 -18 14 0 5 -7 9 -15 9 -8 0 -15 5 -15 10 0 6 -7 10
-15 10 -8 0 -36 13 -63 29 -27 16 -59 32 -70 36 -12 3 -22 11 -22 16 0 5 -5 9
-11 9 -6 0 -61 24 -122 54 -161 76 -256 118 -392 171 -66 25 -133 52 -150 58
-16 7 -32 12 -35 13 -3 1 -20 5 -37 9 -18 4 -33 10 -33 14 0 4 -12 8 -26 9
-15 1 -34 8 -42 15 -8 6 -17 11 -19 10 -1 -2 -4 -3 -5 -2 -2 0 -10 2 -18 4 -8
2 -35 10 -60 18 -25 8 -61 19 -80 23 -48 11 -50 11 -52 14 -2 1 -10 3 -18 5
-8 1 -53 13 -100 25 -47 12 -101 24 -120 27 -19 2 -42 7 -50 10 -8 3 -19 7
-25 8 -5 1 -12 3 -15 4 -3 2 -16 4 -30 5 -42 5 -104 17 -125 24 -11 3 -31 7
-45 8 -14 1 -25 3 -25 4 0 1 -13 3 -30 4 -16 2 -48 6 -70 10 -88 14 -156 23
-265 31 -19 2 -35 4 -35 5 0 10 -840 21 -851 11z m352 -253 c1 -14 4 -30 8
-36 3 -6 2 -13 -4 -17 -7 -4 -7 -12 0 -26 8 -14 7 -19 -1 -19 -8 0 -8 -4 -1
-13 7 -8 7 -18 2 -27 -5 -9 -5 -19 2 -27 6 -7 7 -13 2 -13 -5 0 -7 -34 -4 -76
3 -42 2 -78 -2 -81 -5 -2 -3 -13 2 -24 6 -10 7 -19 3 -19 -4 0 -6 -34 -3 -76
3 -42 2 -78 -2 -81 -5 -2 -3 -13 2 -24 8 -14 7 -19 -1 -19 -8 0 -8 -4 -1 -13
7 -8 7 -18 2 -27 -5 -9 -5 -19 2 -27 7 -9 7 -13 0 -13 -6 0 -7 -13 -2 -35 4
-20 4 -38 -1 -41 -5 -3 -5 -13 1 -25 6 -10 7 -19 2 -19 -4 0 -5 -25 -2 -56 3
-30 3 -57 -2 -60 -4 -3 -3 -14 2 -25 6 -10 7 -19 3 -19 -4 0 -6 -43 -3 -96 3
-53 2 -98 -3 -101 -4 -2 -2 -13 3 -24 6 -10 7 -19 3 -19 -4 0 -6 -61 -3 -136
3 -75 2 -138 -3 -141 -4 -2 -2 -13 3 -24 6 -10 7 -19 3 -19 -4 0 -6 -43 -3
-96 3 -53 2 -98 -3 -101 -4 -2 -2 -13 3 -24 6 -10 7 -19 2 -19 -4 0 -6 -16 -4
-37 4 -30 2 -35 -12 -30 -9 4 -16 1 -16 -6 0 -7 -3 -8 -8 -2 -4 6 -29 10 -57
10 -27 0 -53 -4 -57 -10 -5 -7 -8 -7 -8 0 0 6 -52 10 -135 10 -83 0 -135 -4
-135 -10 0 -7 -3 -7 -8 0 -4 6 -38 10 -77 10 -38 0 -73 -4 -77 -10 -5 -7 -8
-7 -8 0 0 6 -72 10 -195 10 -123 0 -195 -4 -195 -10 0 -7 -3 -7 -8 0 -4 6 -29
10 -57 10 -27 0 -53 -4 -57 -10 -5 -7 -8 -7 -8 0 0 6 -52 10 -135 10 -83 0
-135 -4 -135 -10 0 -7 -3 -7 -8 0 -4 6 -38 10 -77 10 -38 0 -73 -4 -77 -10 -5
-7 -8 -7 -8 0 0 6 -45 10 -115 10 -70 0 -115 -4 -115 -10 0 -7 -3 -7 -8 0 -4
6 -29 10 -57 10 -27 0 -53 -4 -57 -10 -5 -7 -8 -7 -8 0 0 6 -38 10 -95 10 -57
0 -95 -4 -95 -10 0 -7 -3 -7 -8 0 -4 6 -29 10 -57 10 -27 0 -53 -4 -57 -10 -5
-7 -8 -7 -8 0 0 6 -24 10 -52 10 -29 0 -56 -4 -60 -10 -5 -7 -8 -7 -8 0 0 11
-91 12 -109 1 -6 -4 -12 -1 -13 6 -1 7 -2 281 -3 609 l-1 596 45 24 c25 13 54
30 64 38 9 8 17 10 17 6 0 -4 9 0 21 11 12 10 23 18 25 16 4 -3 100 39 146 64
14 8 33 14 42 14 9 0 16 5 16 10 0 6 4 10 9 10 5 0 26 8 47 17 22 9 41 17 44
18 16 3 107 40 118 48 6 5 12 7 12 4 0 -4 29 7 65 23 36 16 65 27 65 25 0 -3
22 4 49 15 27 10 52 16 55 13 3 -4 6 0 6 7 0 7 2 11 6 8 3 -3 27 3 55 13 27
10 49 16 49 13 0 -4 6 -2 13 4 7 6 24 13 37 16 29 6 149 36 168 41 7 3 14 5
17 5 3 1 26 7 52 15 42 12 77 19 183 39 14 3 36 7 50 10 14 3 41 9 60 13 46 9
50 10 53 13 1 1 18 3 37 4 32 3 115 14 150 21 17 3 140 17 185 21 17 1 30 3
30 4 0 3 136 10 248 14 64 1 119 5 121 7 2 2 31 3 63 3 54 -2 58 -3 59 -26z
m424 7 c30 -3 84 -8 120 -11 86 -7 129 -12 165 -19 16 -3 47 -8 70 -10 22 -2
49 -6 61 -9 12 -2 45 -7 75 -11 30 -4 57 -9 61 -12 5 -2 16 -6 27 -8 58 -11
98 -18 116 -20 11 -1 30 -5 42 -9 12 -4 31 -9 42 -11 12 -3 30 -7 41 -10 11
-3 29 -7 41 -10 11 -2 29 -7 39 -10 10 -3 29 -8 42 -11 13 -3 28 -6 33 -8 81
-22 109 -30 160 -47 33 -11 67 -23 75 -26 8 -4 17 -7 20 -8 3 -1 25 -8 50 -15
25 -7 47 -14 50 -15 3 -1 12 -5 20 -8 18 -8 73 -30 80 -32 18 -6 51 -19 155
-61 80 -31 211 -90 237 -104 10 -6 25 -10 33 -10 8 0 15 -5 15 -12 0 -6 3 -8
7 -5 3 4 14 0 24 -9 9 -8 24 -16 32 -18 8 -1 25 -8 38 -16 13 -9 48 -26 76
-40 29 -14 53 -28 53 -32 0 -5 7 -8 15 -8 12 0 15 -14 15 -67 1 -38 1 -377 2
-755 l0 -688 42 -1 c22 0 406 -1 853 -1 l812 0 26 -33 c14 -19 25 -38 25 -43
0 -6 3 -12 8 -14 8 -3 112 -154 112 -163 0 -3 9 -15 20 -27 11 -12 20 -28 20
-35 0 -7 4 -13 8 -13 5 0 16 -17 26 -37 10 -21 28 -54 41 -73 25 -38 71 -119
106 -190 13 -25 38 -71 56 -103 18 -31 32 -60 33 -62 1 -5 46 -107 87 -195 36
-79 38 -83 89 -215 75 -197 163 -469 166 -512 0 -5 5 -19 10 -33 13 -34 57
-208 62 -245 2 -16 6 -37 9 -45 3 -8 8 -28 10 -45 3 -16 12 -69 22 -117 9 -49
14 -92 11 -97 -3 -4 -594 -8 -1313 -9 -719 0 -1316 -1 -1326 -1 -16 -1 -18
-12 -16 -120 1 -66 -2 -124 -5 -130 -4 -6 -4 -11 1 -11 10 0 8 -293 -1 -309
-4 -6 -4 -11 1 -11 10 0 8 -293 -1 -309 -4 -6 -4 -11 1 -11 10 0 9 -153 -1
-169 -4 -6 -3 -11 2 -11 10 0 9 -30 -2 -48 -4 -6 -3 -12 1 -12 10 0 9 -72 -1
-88 -4 -7 -3 -12 2 -12 10 0 9 -30 -2 -48 -4 -6 -4 -12 1 -12 10 0 9 -93 -1
-109 -4 -6 -4 -11 1 -11 10 0 9 -52 -1 -68 -4 -7 -4 -12 1 -12 10 0 9 -173 -1
-189 -4 -6 -4 -11 1 -11 10 0 8 -173 -1 -189 -4 -6 -4 -11 1 -11 10 0 9 -52
-1 -68 -4 -7 -3 -12 2 -12 10 0 9 -30 -2 -48 -4 -6 -3 -12 2 -12 10 0 9 -30
-2 -48 -4 -6 -3 -12 1 -12 10 0 9 -72 -1 -88 -4 -7 -3 -12 2 -12 10 0 9 -30
-2 -48 -4 -6 -4 -12 1 -12 10 0 8 -213 -1 -229 -4 -6 -4 -11 1 -11 10 0 8
-293 -1 -309 -4 -6 -4 -11 1 -11 10 0 8 -293 -1 -309 -4 -6 -4 -11 1 -11 10 0
8 -293 -1 -309 -4 -6 -4 -11 1 -11 10 0 9 -153 -1 -169 -4 -6 -3 -11 2 -11 4
0 7 -22 5 -49 l-4 -49 98 1 98 2 0 1775 0 1775 1248 2 c1179 3 1247 2 1248
-15 0 -9 2 -37 5 -62 2 -25 6 -76 8 -115 3 -38 6 -70 7 -70 4 0 7 -148 8 -335
0 -257 -2 -326 -11 -335 -4 -4 -3 -15 2 -25 5 -10 7 -20 5 -22 -3 -3 -7 -29
-10 -59 -2 -30 -5 -54 -5 -54 -1 0 -2 -26 -3 -57 -1 -32 -4 -58 -7 -58 -3 0
-5 -16 -4 -35 1 -19 -1 -37 -5 -40 -5 -2 -7 -18 -6 -35 1 -16 -1 -30 -4 -30
-3 0 -6 -12 -7 -27 -2 -61 -9 -113 -16 -113 -4 0 -5 -6 -2 -13 3 -8 0 -36 -7
-63 -6 -27 -13 -58 -15 -69 -2 -11 -8 -42 -14 -70 -6 -27 -13 -66 -16 -85 -3
-19 -8 -38 -11 -42 -4 -9 -11 -35 -20 -83 -3 -16 -9 -38 -14 -47 -5 -9 -9 -21
-8 -25 1 -4 0 -11 -1 -15 -1 -5 -4 -12 -5 -18 -1 -5 -3 -11 -4 -12 -2 -2 -4
-14 -7 -28 -2 -14 -7 -32 -11 -40 -3 -8 -7 -17 -8 -20 -1 -3 -12 -39 -25 -80
-13 -41 -25 -79 -26 -85 -1 -5 -8 -23 -15 -40 -6 -16 -13 -35 -15 -42 -5 -25
-67 -179 -76 -190 -6 -7 -8 -13 -5 -13 7 0 -30 -93 -79 -199 -20 -42 -36 -80
-37 -86 -1 -5 -4 -12 -7 -15 -3 -3 -34 -63 -70 -135 -36 -71 -67 -132 -70
-135 -3 -3 -6 -12 -8 -20 -2 -8 -9 -22 -16 -30 -7 -8 -16 -22 -20 -30 -3 -8
-15 -28 -26 -45 -11 -16 -24 -39 -30 -50 -5 -11 -25 -45 -45 -75 -19 -30 -39
-65 -45 -77 -5 -13 -14 -23 -20 -23 -5 0 -10 -5 -10 -11 0 -12 -52 -90 -77
-115 -10 -10 -17 -19 -15 -21 7 -9 1 -23 -8 -18 -5 3 -10 -3 -10 -14 0 -10 -4
-21 -9 -23 -5 -1 -46 -53 -92 -114 -46 -62 -103 -134 -126 -160 -23 -27 -65
-77 -94 -112 -29 -34 -56 -62 -61 -62 -4 0 -8 -5 -8 -10 0 -11 -330 -343 -406
-410 -100 -87 -217 -183 -314 -256 -58 -43 -107 -81 -110 -84 -13 -14 -332
-222 -385 -251 -33 -18 -63 -38 -67 -43 -5 -7 -8 -7 -8 -1 0 6 -3 5 -8 -1 -7
-11 -65 -44 -79 -45 -5 0 -15 -6 -23 -13 -8 -7 -53 -32 -100 -55 -47 -23 -92
-46 -100 -51 -31 -18 -187 -87 -223 -99 -20 -7 -37 -17 -37 -23 0 -6 -3 -9 -6
-6 -3 3 -33 -5 -67 -19 -34 -13 -66 -25 -72 -27 -5 -1 -17 -6 -25 -11 -8 -5
-19 -10 -25 -12 -5 -1 -95 -31 -199 -67 -103 -36 -191 -65 -195 -64 -3 1 -19
-4 -35 -11 -16 -6 -31 -9 -34 -7 -2 3 -12 1 -22 -4 -9 -5 -28 -11 -41 -13 -13
-3 -44 -11 -69 -18 -57 -16 -68 -18 -105 -24 -40 -7 -69 -13 -72 -15 -4 -3
-11 -5 -68 -15 -27 -4 -54 -10 -60 -11 -24 -7 -64 -14 -100 -18 -22 -2 -57 -7
-77 -10 -21 -3 -55 -8 -75 -11 -21 -3 -51 -8 -68 -11 -16 -3 -57 -7 -90 -9
-33 -2 -60 -4 -60 -5 0 -3 -168 -13 -229 -14 l-69 -1 -1 5262 c-1 3501 2 5264
9 5267 12 4 144 -1 225 -9z m-4460 -2005 c0 -3 9 -6 20 -6 11 0 20 3 20 6 0 3
16 5 35 5 19 0 35 -3 35 -7 0 -4 7 -5 15 -2 20 8 115 11 115 4 0 -3 9 -6 20
-6 11 0 20 3 20 6 0 3 16 5 35 5 19 0 35 -3 35 -7 0 -4 14 -3 30 2 37 11 40
10 63 -1 12 -7 17 -6 18 3 0 10 2 10 6 0 2 -6 8 -10 13 -7 16 10 70 12 76 4 3
-5 10 -6 17 -2 15 9 57 10 63 2 2 -4 16 -4 32 0 15 4 42 4 60 0 17 -4 32 -4
32 0 0 3 16 6 35 6 19 0 35 -3 35 -7 0 -4 7 -5 15 -2 20 8 115 11 115 4 0 -3
9 -6 20 -6 11 0 20 3 20 6 0 3 16 5 35 5 19 0 35 -3 35 -7 0 -4 7 -5 15 -2 20
8 115 11 115 4 0 -3 9 -6 20 -6 11 0 20 3 20 6 0 5 21 5 90 1 14 -1 16 -324
15 -3091 0 -1700 2 -3090 5 -3091 38 -7 180 -2 181 6 0 5 2 1396 2 3089 l2
3080 25 5 c19 5 2363 6 2468 2 20 -1 21 -4 12 -21 -8 -15 -8 -20 2 -20 9 0 9
-3 0 -12 -7 -7 -8 -17 -1 -30 5 -10 6 -18 2 -18 -4 0 -6 -34 -3 -76 3 -42 2
-78 -2 -81 -5 -2 -3 -13 2 -24 6 -10 7 -19 3 -19 -4 0 -6 -34 -3 -76 3 -42 2
-78 -2 -81 -5 -2 -3 -13 2 -24 8 -14 7 -19 -1 -19 -8 0 -8 -4 -1 -13 7 -8 7
-18 2 -27 -5 -9 -5 -19 2 -27 7 -9 7 -13 0 -13 -6 0 -7 -13 -2 -35 4 -20 4
-38 -1 -41 -5 -3 -5 -13 1 -25 6 -10 7 -19 2 -19 -4 0 -5 -25 -2 -56 3 -30 3
-57 -2 -60 -4 -3 -3 -14 2 -25 6 -10 7 -19 3 -19 -4 0 -6 -43 -3 -96 3 -53 2
-98 -3 -101 -4 -2 -2 -13 3 -24 6 -10 7 -19 3 -19 -4 0 -6 -61 -3 -136 3 -75
2 -138 -3 -141 -4 -2 -2 -13 3 -24 6 -10 7 -19 3 -19 -4 0 -6 -43 -3 -96 3
-53 2 -98 -3 -101 -4 -2 -2 -13 3 -24 6 -10 7 -19 2 -19 -4 0 -5 -25 -2 -56 3
-30 3 -57 -2 -60 -4 -3 -3 -14 2 -25 6 -11 7 -19 1 -19 -5 0 -6 -14 -1 -35 4
-20 4 -38 -1 -41 -5 -3 -5 -13 1 -25 8 -14 7 -19 -1 -19 -8 0 -8 -4 -1 -13 7
-8 7 -18 2 -27 -5 -9 -5 -19 2 -27 6 -7 7 -13 2 -13 -5 0 -7 -34 -4 -76 3 -42
2 -78 -2 -81 -5 -2 -3 -13 2 -24 6 -10 7 -19 3 -19 -4 0 -6 -34 -3 -76 3 -42
2 -78 -2 -81 -5 -2 -3 -13 2 -24 8 -14 7 -19 -1 -19 -8 0 -8 -4 -1 -13 7 -8 7
-18 2 -27 -5 -9 -5 -19 2 -27 7 -9 7 -13 0 -13 -6 0 -7 -13 -2 -35 4 -20 4
-38 -1 -41 -5 -3 -5 -13 1 -25 6 -10 7 -19 2 -19 -4 0 -5 -25 -2 -56 3 -30 3
-57 -2 -60 -4 -3 -3 -14 2 -25 6 -10 7 -19 2 -19 -4 0 -5 -25 -2 -56 3 -30 3
-57 -2 -60 -4 -3 -3 -14 2 -25 6 -10 7 -19 2 -19 -4 0 -5 -25 -2 -56 3 -30 3
-57 -2 -60 -4 -3 -3 -14 2 -25 6 -11 7 -19 1 -19 -5 0 -6 -14 -1 -35 4 -20 4
-38 -1 -41 -5 -3 -5 -13 1 -25 8 -14 7 -19 -1 -19 -8 0 -8 -4 -1 -13 7 -8 7
-18 2 -27 -5 -9 -5 -19 2 -27 6 -7 7 -13 2 -13 -5 0 -7 -34 -4 -76 3 -42 2
-78 -2 -81 -5 -2 -3 -13 2 -24 6 -10 7 -19 3 -19 -4 0 -6 -34 -3 -76 3 -42 2
-78 -2 -81 -5 -2 -3 -13 2 -24 8 -14 7 -19 -1 -19 -8 0 -8 -4 -1 -13 7 -8 7
-18 2 -27 -5 -9 -5 -19 2 -27 7 -9 7 -13 0 -13 -6 0 -7 -13 -2 -35 4 -20 4
-38 -1 -41 -5 -3 -5 -13 1 -25 6 -10 7 -19 2 -19 -4 0 -5 -25 -2 -56 3 -30 3
-57 -2 -60 -4 -3 -3 -14 2 -25 6 -10 7 -19 3 -19 -4 0 -6 -43 -3 -96 3 -53 2
-98 -3 -101 -4 -2 -2 -13 3 -24 6 -10 7 -19 3 -19 -4 0 -6 -61 -3 -136 3 -75
2 -138 -3 -141 -4 -2 -2 -13 3 -24 6 -10 7 -19 3 -19 -4 0 -6 -43 -3 -96 3
-53 2 -98 -3 -101 -4 -2 -2 -13 3 -24 6 -10 7 -19 2 -19 -4 0 -5 -25 -2 -56 3
-30 3 -57 -2 -60 -4 -3 -3 -14 2 -25 6 -11 7 -19 1 -19 -5 0 -6 -14 -1 -35 4
-20 4 -38 -1 -41 -5 -3 -5 -13 1 -25 8 -14 7 -19 -1 -19 -8 0 -8 -4 -1 -13 7
-8 7 -18 2 -27 -5 -9 -5 -19 2 -27 6 -7 7 -13 2 -13 -5 0 -7 -34 -4 -76 3 -42
2 -78 -2 -81 -5 -2 -3 -13 2 -24 6 -10 7 -19 3 -19 -4 0 -6 -34 -3 -76 3 -42
2 -78 -2 -81 -5 -2 -3 -13 2 -24 8 -14 7 -19 -1 -19 -8 0 -8 -4 -1 -13 7 -8 7
-18 2 -27 -5 -9 -5 -19 2 -27 7 -9 7 -13 0 -13 -6 0 -7 -13 -2 -35 4 -20 4
-38 -1 -41 -5 -3 -5 -13 1 -25 6 -10 7 -19 2 -19 -4 0 -5 -25 -2 -56 3 -30 3
-57 -2 -60 -4 -3 -3 -14 2 -25 6 -10 7 -19 3 -19 -4 0 -6 -43 -3 -96 3 -53 2
-98 -3 -101 -4 -2 -2 -13 3 -24 6 -10 7 -19 3 -19 -4 0 -6 -61 -3 -136 3 -75
2 -138 -3 -141 -4 -2 -2 -13 3 -24 6 -10 7 -19 3 -19 -4 0 -6 -43 -3 -96 3
-53 2 -98 -3 -101 -4 -2 -2 -13 3 -24 6 -10 7 -19 2 -19 -4 0 -5 -25 -2 -56 3
-30 3 -57 -2 -60 -4 -3 -3 -14 2 -25 6 -11 7 -19 1 -19 -5 0 -6 -14 -1 -35 4
-20 4 -38 -1 -41 -5 -3 -5 -13 1 -25 8 -14 7 -19 -1 -19 -8 0 -8 -4 -1 -13 7
-8 7 -18 2 -27 -5 -9 -5 -19 2 -27 6 -7 7 -13 2 -13 -5 0 -7 -34 -4 -76 3 -42
2 -78 -2 -81 -5 -2 -3 -13 2 -24 6 -10 7 -19 3 -19 -4 0 -6 -34 -3 -76 3 -42
2 -78 -2 -81 -5 -2 -3 -13 2 -24 8 -14 7 -19 -1 -19 -8 0 -8 -4 -1 -13 7 -8 7
-18 2 -27 -5 -9 -5 -19 2 -27 7 -9 7 -13 0 -13 -6 0 -7 -13 -2 -35 4 -20 4
-38 -1 -41 -5 -3 -5 -13 1 -25 6 -10 7 -19 2 -19 -4 0 -5 -25 -2 -56 3 -30 3
-57 -2 -60 -4 -3 -3 -14 2 -25 6 -11 7 -19 1 -19 -5 0 -6 -14 -1 -35 4 -20 4
-38 -1 -41 -5 -3 -5 -13 1 -25 8 -14 7 -19 -1 -19 -8 0 -8 -4 -1 -13 7 -8 7
-18 2 -27 -5 -9 -5 -19 2 -27 6 -7 7 -13 2 -13 -5 0 -7 -34 -4 -76 3 -42 2
-78 -2 -81 -5 -2 -3 -13 2 -24 6 -10 7 -19 3 -19 -9 0 -8 -174 2 -190 3 -5 1
-10 -5 -10 -6 0 -9 -4 -6 -9 3 -5 -5 -11 -19 -13 -14 -3 -25 -1 -25 3 0 5 -11
4 -24 -1 -13 -5 -26 -7 -29 -4 -2 2 -67 7 -143 9 -76 3 -157 7 -179 9 -114 10
-193 18 -215 21 -14 2 -45 7 -70 11 -25 4 -53 6 -62 6 -10 0 -18 2 -18 6 0 4
-19 8 -43 8 -23 1 -55 4 -72 7 -60 12 -91 18 -125 27 -19 5 -53 11 -75 15 -42
6 -270 61 -295 72 -8 3 -23 5 -32 4 -10 -1 -18 3 -18 9 0 6 -5 8 -10 5 -6 -4
-16 -2 -23 3 -7 6 -16 10 -22 10 -21 0 -125 37 -125 45 0 5 -4 6 -9 3 -9 -6
-124 31 -188 60 -17 8 -33 14 -36 14 -3 0 -18 5 -34 12 -15 6 -30 12 -33 13
-3 1 -18 7 -33 13 -16 7 -31 12 -33 12 -5 0 -56 22 -149 65 -131 60 -166 75
-174 75 -5 0 -11 3 -13 8 -1 4 -43 27 -93 52 -49 24 -117 60 -150 79 -33 19
-62 34 -64 32 -2 -1 -7 1 -10 6 -3 4 -51 35 -106 68 -55 33 -102 62 -105 65
-14 15 -100 70 -109 70 -6 0 -11 4 -11 8 0 5 -12 15 -27 23 -15 8 -34 20 -43
27 -17 15 -165 127 -206 157 -16 11 -36 28 -46 38 -10 9 -18 14 -18 11 0 -3
-8 3 -17 13 -10 11 -59 55 -110 97 -140 116 -440 417 -558 560 -22 26 -47 56
-56 65 -8 9 -33 39 -55 66 -21 28 -42 52 -46 53 -5 2 -8 10 -8 17 0 7 -3 15
-7 17 -5 2 -28 30 -53 63 -25 33 -48 62 -52 63 -5 2 -8 10 -8 18 0 8 -4 14
-10 14 -5 0 -10 6 -10 14 0 8 -4 16 -8 18 -12 5 -162 232 -162 245 0 6 -3 13
-7 15 -10 4 -103 157 -103 169 0 5 -5 9 -11 9 -5 0 -8 4 -5 9 4 5 3 11 -2 13
-7 3 -159 304 -205 408 -14 30 -32 71 -40 90 -14 31 -59 147 -62 160 -1 3 -6
16 -12 30 -19 45 -51 125 -52 132 -1 4 -4 13 -6 20 -12 33 -46 135 -49 148 -2
8 -11 35 -19 60 -20 59 -94 354 -101 404 -4 21 -8 41 -10 45 -4 5 -7 22 -21
106 -2 11 -7 31 -10 45 -3 14 -8 39 -10 55 -2 17 -6 50 -10 75 -3 25 -8 61
-10 80 -2 19 -6 49 -10 65 -3 17 -8 59 -11 95 -2 36 -7 97 -11 135 -8 93 -8
735 0 805 3 30 9 89 12 130 3 41 7 86 10 100 2 14 7 48 10 75 4 28 9 64 11 80
3 17 7 46 9 65 2 19 5 35 5 35 1 0 3 11 4 25 2 14 6 35 10 48 4 12 9 35 11 50
2 15 9 50 15 77 7 28 14 61 16 75 3 14 17 70 30 125 14 55 27 107 29 115 2 8
8 29 14 47 5 17 7 34 3 37 -3 3 -1 6 5 6 5 0 10 6 10 13 0 12 87 276 103 312
5 11 25 63 45 115 21 52 42 106 48 120 6 14 11 27 12 30 0 3 15 34 32 70 17
36 33 72 35 80 2 8 5 17 8 20 3 3 25 47 50 98 24 50 48 92 53 92 4 0 5 5 2 10
-3 6 -1 10 6 10 7 0 10 3 6 6 -3 3 6 27 21 52 14 26 35 65 46 87 12 22 23 42
26 45 12 12 60 90 62 102 2 7 6 15 9 18 3 3 45 65 94 139 49 73 112 164 142
202 29 38 53 71 53 74 0 8 55 63 67 66 20 6 93 5 93 -1z"/>
</g>
</svg>
