<svg version="1.2" xmlns="http://www.w3.org/2000/svg" viewBox="300 500 1000 1000" width="100%" height="100%">
	<title>AdobeStock_166677038-ai</title>
	<style>
		.s0 { fill: #ffffff } 
		.s1 { fill: #ffc7a3 } 
		.s2 { fill: #e8b594 } 
		.s3 { fill: #29201a } 
		.s4 { fill: #522e23 } 
		.s5 { fill: #000000 } 
		.s6 { fill: #6e5647 } 
		.s7 { fill: #614c3f } 
		.s8 { fill: #3d3027 } 
		.s9 { fill: #ffaf99 } 
		.s10 { fill: #63382b } 
		.s11 { fill: #6e3e30 } 
		.s12 { fill: #3d1800 } 
		.s13 { fill: #291000 } 
		.s14 { fill: #ff3a12 } 
		.s15 { fill: #ffecc3 } 
		.s16 { opacity: .8;fill: #baf8e9 } 
	</style>
	<g id="_Artboards_">
	</g>
	<g id="321353356351 1">
		<g id="&lt;Group&gt;">
			<g id="&lt;Group&gt;">
				<path id="&lt;Path&gt;" class="s1" d="m784.7 899.7c0 0 2 16.7-4.8 24h33.3c0 0-3.1-18.4 2.5-20.6 5.6-2.3-31-3.4-31-3.4z"/>
			</g>
			<g id="&lt;Group&gt;">
				<path id="&lt;Path&gt;" class="s1" d="m847.9 864.1c0 24.3-18.5 44-41.2 44-22.7 0-41.2-19.7-41.2-44 0-24.3 18.5-44 41.2-44 22.7 0 41.2 19.7 41.2 44z"/>
			</g>
			<g id="&lt;Group&gt;">
				<path id="&lt;Path&gt;" class="s2" d="m832.6 830c6.2 7.6 9.9 17.6 9.9 28.5 0 24.3-18.4 44-41.2 44-9.8 0-18.8-3.7-25.9-9.8 7.6 9.4 18.8 15.4 31.3 15.4 22.7 0 41.2-19.7 41.2-44 0-13.8-6-26.1-15.3-34.1z"/>
			</g>
			<g id="&lt;Group&gt;">
				<path id="&lt;Path&gt;" class="s3" d="m805.5 871.3c0 0-7.4 14.1-29.3 22.4 0 0-21.4-17.6-14.8-46.3 6.7-28.7 86.5-6.6 86.5-6.6 0 0-41.2 15.5-42.4 30.5z"/>
			</g>
			<g id="&lt;Group&gt;">
				<path id="&lt;Path&gt;" class="s4" d="m842.7 829.6c0.3-1.3 0.6-2.7 0.6-4.2 0.7-18.6-17.6-34.2-40.9-34.9-23.4-0.7-42.8 13.8-43.5 32.4-0.1 2.6 0.2 4.8 0.8 6.9-10.5 5.4-21.3 13.2-32.1 24.1l155.7 4.6c0 0-15.8-17.4-40.6-28.9z"/>
			</g>
			<g id="&lt;Group&gt;">
				<path id="&lt;Path&gt;" class="s5" d="m839.4 864.1c0 2.6-2.3 4.6-5.2 4.6-2.9 0-5.2-2-5.2-4.6 0-2.5 2.3-4.6 5.2-4.6 2.9 0 5.2 2.1 5.2 4.6z"/>
			</g>
			<g id="&lt;Group&gt;">
				<path id="&lt;Path&gt;" class="s0" d="m838.5 863.7c0 1.1-1 1.9-2.2 1.9-1.1 0-2.1-0.8-2.1-1.9 0-1 1-1.9 2.1-1.9 1.2 0 2.2 0.9 2.2 1.9z"/>
			</g>
			<g id="&lt;Group&gt;">
				<path id="&lt;Path&gt;" class="s2" d="m847 873c0 0-0.3 6.7 2.6 10.5h-9.9c-2.7 2.8 0-7.4 0-7.4z"/>
			</g>
			<g id="&lt;Group&gt;">
				<path id="&lt;Path&gt;" class="s6" d="m779.9 922.5c0 0-69.3 60.3-63.6 155.1h103.9c0 0-19-40.3-7-155.1z"/>
			</g>
			<g id="&lt;Group&gt;">
				<g id="&lt;Group&gt;">
					<path id="&lt;Path&gt;" class="s7" d="m812.3 932q0.4-4.6 0.9-9.5h-1.7q0.4 4.9 0.8 9.5z"/>
				</g>
				<g id="&lt;Group&gt;">
					<path id="&lt;Path&gt;" class="s7" d="m771.9 930.4c-17.9 19.1-60.1 72.4-55.6 147.2h24.2c-13.4-69.8 17.7-126.3 31.4-147.2z"/>
				</g>
				<g id="&lt;Group&gt;">
					<path id="&lt;Path&gt;" class="s7" d="m786.6 1077.6h33.6c0 0-0.8-1.8-2-5.6z"/>
				</g>
			</g>
			<g id="&lt;Group&gt;">
				<path id="&lt;Path&gt;" class="s8" d="m716.3 1077.6c0 0 131.9-39.9 173.3-26.6 0 0 18.6 5.7 11 60.7l-184.3-7.6z"/>
			</g>
			<g id="&lt;Group&gt;">
				<path id="&lt;Path&gt;" class="s6" d="m784.7 946.6c0 0 55.2 52.2 85.5 58.4v23.2c0 0-61.5-17.9-85.5-51.2 0 0-19.2-4.8 0-30.4z"/>
			</g>
			<g id="&lt;Group&gt;">
				<g id="&lt;Group&gt;">
					<path id="&lt;Path&gt;" class="s7" d="m863.3 1002.9v17.9c0 0-48-14-75.7-40.3 25.6 31 82.6 47.7 82.6 47.7v-23.2c-2.1-0.5-4.5-1.2-6.9-2.1z"/>
				</g>
				<g id="&lt;Group&gt;">
					<path id="&lt;Path&gt;" class="s7" d="m777.8 969.6c0 0-0.5-0.2-1.2-0.4 1.4 4.7 5.3 6.7 7.1 7.4-2.1-2.2-4.1-4.6-5.9-7z"/>
				</g>
			</g>
			<g id="&lt;Group&gt;">
				<path id="&lt;Path&gt;" class="s9" d="m870.2 1005c0 0 79.7-22.3 104.4-17.6 0 0-35.1 16.6-104.4 40.8z"/>
			</g>
			<g id="&lt;Group&gt;">
				<path id="&lt;Path&gt;" class="s10" d="m863.9 1068c-296.6 9.2-430.8-54.6-430.8-54.6 36.7 117.2 116.7 183.8 116.7 183.8h341.6 229.8c0 0 53.8-66.6 78.5-183.8 0 0-136.2 63.8-335.8 54.6z"/>
			</g>
			<g id="&lt;Group&gt;">
				<path id="&lt;Path&gt;" class="s11" d="m863.9 1100.2c159.1 7.4 294.2-70.7 335.8-86.8 6.1-18.2-4.6 21.8 0 0 0 0-136.2 63.8-335.8 54.6-296.6 9.2-430.8-54.6-430.8-54.6 7.2 23.1-9.6-19.1 0 0 51.8 17.5 208.6 93.7 430.8 86.8z"/>
			</g>
			<g id="&lt;Group&gt;">
				<path id="&lt;Path&gt;" class="s11" d="m549.8 1197.2c0 0 279.6 103.5 571.4 0z"/>
			</g>
			<g id="&lt;Group&gt;">
				<path id="&lt;Path&gt;" class="s8" d="m783.5 916.8c0 0 20 7.4 29.7 5.7 0 0-39.2 5.1-45.1 12.1 0 0 14.4-13.1 15.4-17.8z"/>
			</g>
			<g id="&lt;Group&gt;">
				<path id="&lt;Path&gt;" class="s9" d="m957.8 990.7c0 0 10.1-18.9 22.9-15.9 12.7 3.1 11.7 16.3 6.9 19.5-4.8 3.2-39.1 5.5-46.6 2.4-7.5-3.1 16.8-6 16.8-6z"/>
			</g>
		</g>
	</g>
</svg>